# xmcd
#
# Track frame offsets:
#	150
#	15140
#	29297
#	39440
#	55962
#	74975
#	90047
#	104120
#	117987
#	133302
#	153657
#	166385
#	182170
#	195967
#	217022
#	234347
#	247345
#	264535
#
# Disc length: 3703 seconds
#
# Revision: 1
# Processed by: cddbd v1.5.1PL0 Copyright (c) Steve Scherf et al.
# Submitted via: CDex 1.50Beta5
#
DISCID=030e7512
DTITLE=Various Artist - Cinema Boutique 10
DYEAR=1900
DGENRE=Soundtrack
TTITLE0=エデンの東
TTITLE1=アル・ディ・ラ
TTITLE2=ロック・アラウンド・ザ・クロック
TTITLE3=ワイルドで行こう
TTITLE4=あなたを夢みて
TTITLE5=バック・トゥ・ザ・フューチャー
TTITLE6=エンターティナー
TTITLE7=アクセル・Fのテーマ
TTITLE8=サウンド・オブ・サイレンス
TTITLE9=シークレット・オブ・マイ・サクセス
TTITLE10=ハスラー2
TTITLE11=愛のテーマ
TTITLE12=サムシング・ガッタ・ギブ
TTITLE13=ジャイアンツ
TTITLE14=理由なき反抗
TTITLE15=男が女を愛する時
TTITLE16=愛のテーマ
TTITLE17=スタンドバイ・ミー
EXTD=
EXTT0=
EXTT1=
EXTT2=
EXTT3=
EXTT4=
EXTT5=
EXTT6=
EXTT7=
EXTT8=
EXTT9=
EXTT10=
EXTT11=
EXTT12=
EXTT13=
EXTT14=
EXTT15=
EXTT16=
EXTT17=
PLAYORDER=
